<svg id="Layer_1" data-name="Layer 1" xmlns="http://www.w3.org/2000/svg" viewBox="0 0 1020 1020"><defs><style>.cls-1{fill:#fff;}</style></defs><title>svglip2</title><path class="cls-1" d="M909.1,540.5c-53.3-11.3-399.1-8.6-399.1-8.6s-345.8-2.8-399.1,8.6l-98.6-56S104.1,777,510,777s497.7-292.6,497.7-292.6Z"/><path class="cls-1" d="M760,281.3c-113.9-92.7-250,12.1-250,12.1S373.9,188.5,260,281.3,103,456.8,12.3,484.4c0,0,76.3,91.6,204.6,48.6,0,0,141.6-91.6,235.6-89.4,0,0,26.5,15.5,57.5,15.5s57.5-15.5,57.5-15.5c94-2.2,235.6,89.4,235.6,89.4,128.3,43.1,204.6-48.6,204.6-48.6C917,456.8,873.9,374,760,281.3Z"/></svg>