<svg id="Layer_1" data-name="Layer 1" xmlns="http://www.w3.org/2000/svg" xmlns:xlink="http://www.w3.org/1999/xlink" viewBox="0 0 1020 1020"><defs><style>.cls-1{fill:#fff;}</style><symbol id="Restricted" data-name="Restricted" viewBox="0 0 528.1 528.1"><path class="cls-1" d="M450.8,77.3a264,264,0,0,0-373.4,0c-103.1,103.1-103.1,270.3,0,373.4a264,264,0,0,0,373.4,0C553.9,347.6,553.9,180.5,450.8,77.3ZM106.5,106.5A222.9,222.9,0,0,1,388.9,79.5L79.5,388.9a222.9,222.9,0,0,1,27.1-282.3ZM421.6,421.6a222.9,222.9,0,0,1-282.3,27L448.6,139.3C507.2,225.9,498.2,344.9,421.6,421.6Z"/></symbol></defs><title>svglip2not</title><path class="cls-1" d="M809.7,532.9c-40-8.5-299.7-6.4-299.7-6.4s-259.7-2.1-299.7,6.4l-74.1-42.1S205.2,710.5,510,710.5,883.8,490.8,883.8,490.8Z"/><path class="cls-1" d="M697.7,338.3c-85.6-69.6-187.7,9.1-187.7,9.1s-102.2-78.8-187.7-9.1S204.3,470.1,136.2,490.8c0,0,57.3,68.8,153.7,36.5,0,0,106.3-68.8,176.9-67.2,0,0,19.9,11.6,43.2,11.6s43.2-11.6,43.2-11.6c70.6-1.7,176.9,67.2,176.9,67.2,96.3,32.3,153.7-36.5,153.7-36.5C815.7,470.1,783.3,407.9,697.7,338.3Z"/><path class="cls-1" d="M916.1,540.5c-53.3-11.3-399.1-8.6-399.1-8.6s-345.8-2.8-399.1,8.6L19.3,484.4S111.1,777.5,517,777.5s497.7-293.1,497.7-293.1Z"/><path class="cls-1" d="M767,280.9C653.1,187.9,517,293,517,293S380.9,187.9,267,280.9,110,456.7,19.3,484.4c0,0,76.3,91.8,204.6,48.7,0,0,141.6-91.8,235.6-89.6,0,0,26.5,15.5,57.5,15.5s57.5-15.5,57.5-15.5c94-2.2,235.6,89.6,235.6,89.6,128.3,43.1,204.6-48.7,204.6-48.7C924,456.7,880.9,373.8,767,280.9Z"/><use id="Restricted-3" data-name="Restricted" width="528.1" height="528.1" transform="translate(22 22) scale(1.85 1.85)" xlink:href="#Restricted"/></svg>