<svg id="Layer_1" data-name="Layer 1" xmlns="http://www.w3.org/2000/svg" xmlns:xlink="http://www.w3.org/1999/xlink" viewBox="0 0 1020 1020"><defs><style>.cls-1{fill:#fff;}</style><symbol id="Mute_-_Grey" data-name="Mute - Grey" viewBox="0 0 200.6 193.4"><path class="cls-1" d="M0,61.6v67.1H46.1l.7.6,56.8-56.8V16.6l-57.6,45ZM175.5,49.5,157,67.9a67.6,67.6,0,0,1,5.7,27.3c0,18.2-7,34.5-17.3,44.4l13.1,21.1c17.7-14,29.3-38.1,29.3-65.5A89.1,89.1,0,0,0,175.5,49.5ZM103.7,173.7V121.2L74.2,150.7Z"/><polygon class="cls-1" points="193.1 0 200.6 7.5 14.6 193.4 7.1 186 193.1 0"/></symbol></defs><title>svgsoundoff</title><use id="Mute_-_Grey-3" data-name="Mute - Grey" width="200.6" height="193.43" transform="translate(50.3 66.7) scale(4.58)" xlink:href="#Mute_-_Grey"/></svg>