<svg id="Layer_1" data-name="Layer 1" xmlns="http://www.w3.org/2000/svg" xmlns:xlink="http://www.w3.org/1999/xlink" viewBox="0 0 1020 1020"><defs><style>.cls-1{fill:#fff;}</style><symbol id="Volume_High_-_Grey" data-name="Volume High - Grey" viewBox="0 0 172.1 162.2"><polygon class="cls-1" points="0 55.8 0 106.5 34.8 106.5 78.3 140.5 78.3 21.9 34.8 55.8 0 55.8"/><path class="cls-1" d="M130.7,0,120.5,16.1c18.6,8,32.7,34.6,32.7,65.1S139.4,137.8,121,146l10,16.2c24-12.3,41.1-43.9,41.1-81S154.9,12.2,130.7,0Z"/><path class="cls-1" d="M110.9,31.3,100.9,47c8.2,7.3,13.8,20,13.8,34.2s-5.2,26.1-13.1,33.5l9.9,15.9c13.3-10.5,22.1-28.7,22.1-49.4S124.5,41.7,110.9,31.3Z"/></symbol></defs><title>svgsoundon</title><use id="Volume_High_-_Grey-3" data-name="Volume High - Grey" width="172.1" height="162.18" transform="translate(46.4 73.2) scale(5.39)" xlink:href="#Volume_High_-_Grey"/></svg>